# This file uses centimeters as units for non-parametric coordinates.

mtllib ceeling workout room.mtl
g default
v 6.038592 13.121866 3.375005
v 6.104660 13.122662 3.317204
v 6.341302 13.125509 3.873467
v 6.104731 13.122662 3.153854
v 6.129011 13.122954 3.248097
v 6.336452 12.789154 3.861289
v 6.038609 13.121866 3.086381
v 5.768132 13.118611 3.231639
v 5.792320 13.118902 3.149599
v 5.948428 13.120781 3.063042
v 5.858284 13.119696 3.086367
v 5.948428 13.120781 3.397293
v 5.858267 13.119696 3.374982
v 5.792330 13.118902 3.317206
v 6.104731 13.122662 3.153854
v 6.129011 13.122954 3.248097
v -4.705297 13.125509 3.873467
v -4.710341 12.993465 -5.092117
v -4.685416 12.789154 3.861289
v 6.338739 13.125403 -5.047569
vt 0.080522 0.939748
vt 0.085009 0.945369
vt 0.036220 0.964487
vt 0.090260 0.947527
vt 0.098676 0.944861
vt 0.104185 0.939453
vt 0.770069 0.962623
vt 0.092223 0.917400
vt 0.766738 0.063053
vt 0.098950 0.919351
vt 0.106078 0.932085
vt 0.104150 0.924725
vt 0.078709 0.932224
vt 0.036262 0.060527
vt 0.080510 0.924837
vt 0.085222 0.919417
vt 0.095647 0.945666
vt 0.087871 0.947580
vt 0.008871 0.062130
vt 0.012245 0.964166
vn 0.012036 -0.999928 -0.000002
vn 0.012032 -0.999928 0.000007
vn 0.000044 -0.999951 0.009890
vn 0.012028 -0.999928 0.000014
vn 0.000044 -0.999951 0.009890
vn 0.012032 -0.999928 0.000007
vn 0.012011 -0.999928 0.000008
vn 0.012024 -0.999928 0.000009
vn 0.011940 -0.999929 0.000003
vn 0.000434 -0.999899 0.014213
vn 0.005049 -0.999950 0.008679
vn 0.011969 -0.999928 -0.000033
vn 0.012024 -0.999928 0.000009
vn 0.012036 -0.999928 0.000009
vn 0.011940 -0.999929 0.000003
vn 0.011969 -0.999928 -0.000033
vn 0.005049 -0.999950 0.008679
vn 0.011942 -0.999929 0.000002
vn 0.012036 -0.999928 0.000009
vn 0.011942 -0.999929 0.000002
vn 0.011940 -0.999929 0.000003
vn 0.012036 -0.999928 -0.000002
vn 0.000044 -0.999951 0.009890
vn 0.000069 -0.999949 0.010102
vn 0.000044 -0.999951 0.009890
vn 0.000243 -0.999892 0.014718
vn 0.000069 -0.999949 0.010102
vn 0.000069 -0.999949 0.010102
vn 0.000243 -0.999892 0.014718
vn 0.000942 -0.999499 0.031621
vn 0.000942 -0.999499 0.031621
vn 0.000243 -0.999892 0.014718
vn -0.000146 -0.999959 0.009114
vn -0.000146 -0.999959 0.009114
vn 0.000243 -0.999892 0.014718
vn 0.000434 -0.999899 0.014213
vn 0.011961 -0.999928 -0.000012
vn 0.011961 -0.999929 -0.000012
vn 0.011961 -0.999928 -0.000012
vn 0.000000 0.036183 -0.999345
vn 0.000000 0.036183 -0.999345
vn 0.000000 0.036183 -0.999345
vn 0.000000 0.036183 -0.999345
vn 0.000243 -0.999892 0.014718
vn 0.005049 -0.999950 0.008679
vn 0.000434 -0.999899 0.014213
vn 0.011940 -0.999929 0.000003
vn 0.012011 -0.999928 0.000008
vn 0.012011 -0.999928 0.000008
vn 0.005049 -0.999950 0.008679
vn 0.011940 -0.999929 0.000003
vn 0.011942 -0.999929 0.000002
s off
g polySurface1481 polySurface1429
usemtl polySurface1447SG
f 1/1/1 2/2/2 3/3/3
f 5/4/4 3/3/5 2/2/6
f 4/5/7 7/6/8 20/7/9
f 8/8/10 18/9/11 9/10/12
f 7/6/13 10/11/14 20/7/15
f 9/10/16 18/9/17 11/12/18
f 10/11/19 11/12/20 20/7/21
f 1/1/22 3/3/23 12/13/24
f 3/3/25 17/14/26 12/13/27
f 12/13/28 17/14/29 13/15/30
f 13/15/31 17/14/32 14/16/33
f 14/16/34 17/14/35 8/8/36
f 15/17/37 3/3/38 16/18/39
f 19/19/40 17/14/41 3/3/42 6/20/43
f 17/14/44 18/9/45 8/8/46
f 20/7/47 3/3/48 4/5/49
f 18/9/50 20/7/51 11/12/52
