# This file uses centimeters as units for non-parametric coordinates.

mtllib kitchen floor.mtl
g default
v 4.644820 0.079154 2.860659
v 4.644819 0.079154 -1.849227
v -4.090026 0.079154 2.860659
v -4.090026 0.079154 -1.849227
v -4.091305 0.079154 -4.149445
v 4.581963 0.079154 -4.149445
vt 0.001123 0.000977
vt 0.999023 0.000977
vt 0.999023 0.539051
vt 0.001123 0.539051
vt 0.991842 0.801836
vt 0.000977 0.801836
vn 0.000000 1.000000 0.000000
vn 0.000000 1.000000 0.000000
vn 0.000000 1.000000 0.000000
vn 0.000000 1.000000 0.000000
vn 0.000000 1.000000 0.000000
vn 0.000000 1.000000 0.000000
s 1
g polySurface1478 polySurface1403 polySurface1239 pCube103
usemtl polySurface1478SG
f 3/1/1 1/2/2 2/3/3 4/4/4
f 6/5/5 5/6/6 4/4/4 2/3/3
