# This file uses centimeters as units for non-parametric coordinates.

mtllib kitchen wall.mtl
g default
v -3.275320 -0.361755 -3.809380
v 5.865429 -0.361755 -3.864561
v 6.107158 5.538975 -4.261231
v -3.645304 5.538975 -4.206050
vt 0.944029 0.388745
vt 0.967141 0.952926
vt 0.034689 0.952926
vt 0.070064 0.388745
vn 0.005828 0.067134 0.997727
vn 0.005828 0.067134 0.997727
vn 0.005828 0.067134 0.997727
vn 0.005828 0.067134 0.997727
s off
g polySurface1405 polySurface1250 pCube103
usemtl polySurface1405SG
f 2/1/1 3/2/2 4/3/3 1/4/4
