# This file uses centimeters as units for non-parametric coordinates.

mtllib stairs trim.mtl
g default
v -3.195658 20.486500 3.854312
v -3.193997 20.494396 2.769502
v -3.208852 20.793814 3.865761
v -3.208852 20.793814 2.777507
v -4.120468 20.478603 2.769080
v -3.547122 20.793814 2.777507
v -3.577550 21.122133 2.775304
v -3.547122 20.793814 3.865761
v -3.556440 21.109032 3.877506
v -5.713907 19.066839 2.721254
v -5.781862 21.109032 3.877506
v -5.797113 21.122133 2.775304
v -1.598335 19.136877 3.804028
v -1.598335 19.136877 2.733212
v -1.607346 19.452095 3.815772
v -1.607346 19.452095 2.741639
v -2.384408 20.117037 3.840546
v -2.384408 20.117037 2.759415
v -2.763433 20.117037 3.840546
v -2.763433 20.117037 2.759415
v -1.985079 19.452095 2.741639
v -2.373049 19.767305 2.750065
v -1.994703 19.767305 2.750065
v -1.985079 19.452095 3.815772
v -2.373049 19.767305 3.827516
v -1.994703 19.767305 3.827516
v -2.776423 20.494396 3.854606
v -2.776423 20.494396 2.769502
v -3.136231 19.136877 2.733212
v -5.688641 19.136877 3.804028
vt 0.108191 0.535514
vt 0.155529 0.537278
vt 0.154312 0.704380
vt 0.108191 0.703148
vt 0.063242 0.703148
vt 0.014686 0.701849
vt 0.014686 0.533705
vt 0.063242 0.535514
vt 0.719121 0.394361
vt 0.622010 0.304168
vt 0.622010 0.259456
vt 0.670565 0.258318
vt 0.638074 0.712411
vt 0.589519 0.710602
vt 0.589518 0.545655
vt 0.638074 0.546952
vt 0.874647 0.716227
vt 0.829854 0.716227
vt 0.829854 0.549691
vt 0.874647 0.549691
vt 0.190583 0.021551
vt 0.569869 0.224074
vt 0.568979 0.271430
vt 0.524035 0.272065
vt 0.775982 0.548250
vt 0.775982 0.714220
vt 0.731269 0.548251
vt 0.731269 0.714220
vt 0.682714 0.546952
vt 0.682714 0.712411
vt 0.932776 0.718393
vt 0.932775 0.551244
vt 0.982124 0.551244
vt 0.982321 0.718347
vt 0.940405 0.371846
vt 0.772261 0.371846
vt 0.772261 0.029044
vt 0.940405 0.029044
vt 0.016954 0.216845
vt 0.180520 0.325448
vt 0.012792 0.313598
vt 0.670565 0.213678
vt 0.719121 0.212613
vt 0.510010 0.401188
vt 0.510010 0.351839
vt 0.568138 0.350304
vt 0.568138 0.305511
vt 0.512443 0.536209
vt 0.415332 0.449327
vt 0.463888 0.447892
vt 0.463888 0.402943
vt 0.726379 0.428977
vt 0.978281 0.430491
vt 0.981829 0.527316
vt 0.639031 0.525669
vt 0.523286 0.320636
vt 0.665509 0.111927
vt 0.664929 0.165813
vt 0.620140 0.166446
vt 0.619426 0.224590
vt 0.710669 0.062729
vt 0.755683 0.013532
vt 0.755305 0.062098
vt 0.710218 0.111295
vn 0.998934 0.046149 0.000931
vn 0.998934 0.046149 0.000931
vn 0.998934 0.046149 0.000931
vn 0.998934 0.046149 0.000931
vn 0.998047 0.061777 -0.009249
vn 0.998047 0.061777 -0.009249
vn 0.998047 0.061777 -0.009249
vn 0.998047 0.061777 -0.009249
vn 0.000000 1.000000 0.000000
vn 0.000000 1.000000 0.000000
vn 0.000000 1.000000 0.000000
vn 0.000000 1.000000 0.000000
vn -0.000000 0.026723 -0.999643
vn -0.000000 0.026723 -0.999643
vn 0.000000 0.026723 -0.999643
vn 0.000000 0.026723 -0.999643
vn 0.999592 0.028577 0.000000
vn 0.999592 0.028577 0.000000
vn 0.999592 0.028577 0.000000
vn 0.999592 0.028577 0.000000
vn 0.000000 1.000000 0.000000
vn 0.000000 1.000000 0.000000
vn 0.000000 1.000000 0.000000
vn 0.000000 1.000000 0.000000
vn 0.000000 -0.037232 0.999307
vn 0.000000 -0.037232 0.999307
vn 0.000000 -0.037231 0.999307
vn 0.000000 -0.037232 0.999307
vn 0.999473 0.032462 0.000000
vn 0.999473 0.032462 0.000000
vn 0.999473 0.032462 0.000000
vn 0.999473 0.032462 0.000000
vn 0.000000 1.000000 0.000000
vn 0.000000 1.000000 0.000000
vn 0.000000 1.000000 0.000000
vn 0.000000 1.000000 0.000000
vn 0.999534 0.030519 0.000000
vn 0.999534 0.030519 0.000000
vn 0.999534 0.030519 0.000000
vn 0.999534 0.030519 0.000000
vn 0.000000 1.000000 0.000000
vn 0.000000 1.000000 0.000000
vn 0.000000 1.000000 0.000000
vn 0.000000 1.000000 0.000000
vn 0.999408 0.034403 0.000000
vn 0.999408 0.034403 0.000000
vn 0.999408 0.034403 0.000000
vn 0.999408 0.034403 0.000000
vn -0.009437 0.999949 0.003630
vn -0.009437 0.999949 0.003630
vn -0.009437 0.999949 0.003630
vn -0.009437 0.999949 0.003630
vn 0.000000 0.999929 0.011886
vn 0.000000 0.999929 0.011886
vn 0.000000 0.999929 0.011886
vn 0.000000 0.999929 0.011886
vn -0.998717 -0.045645 0.021923
vn -0.998927 -0.042986 0.017213
vn -0.999078 -0.040798 0.013340
vn -0.000000 0.026723 -0.999643
vn 0.000000 0.026723 -0.999643
vn 0.000000 0.026723 -0.999643
vn 0.000000 0.026723 -0.999643
vn -0.000000 0.026723 -0.999643
vn -0.000001 0.026723 -0.999643
vn 0.000001 0.026723 -0.999643
vn 0.000000 0.026723 -0.999643
vn -0.000000 0.026723 -0.999643
vn 0.000000 0.026723 -0.999643
vn -0.000001 0.026723 -0.999643
vn -0.000000 0.026723 -0.999643
vn 0.004178 0.021931 -0.999751
vn 0.005027 0.020590 -0.999775
vn 0.002682 0.021847 -0.999758
vn -0.000000 0.026723 -0.999643
vn 0.002682 0.021847 -0.999758
vn -0.000002 0.026723 -0.999643
vn -0.000001 0.026723 -0.999643
vn 0.004178 0.021931 -0.999751
vn 0.002682 0.021847 -0.999758
vn -0.000000 0.026723 -0.999643
vn 0.004178 0.021931 -0.999751
vn 0.004561 0.021551 -0.999757
vn 0.004561 0.021551 -0.999757
vn 0.005027 0.020590 -0.999775
vn -0.998717 -0.045645 0.021923
vn -0.998489 -0.048181 0.026416
vn -0.998927 -0.042986 0.017213
vn 0.000000 -0.037232 0.999307
vn 0.000000 -0.037232 0.999307
vn 0.000000 -0.037232 0.999307
vn 0.000000 -0.037232 0.999307
vn 0.000000 -0.037232 0.999307
vn 0.000000 -0.037232 0.999307
vn 0.000000 -0.037232 0.999307
vn 0.000000 -0.037232 0.999307
vn 0.000000 -0.037232 0.999307
vn 0.000000 -0.037232 0.999307
vn 0.000000 -0.037232 0.999307
vn 0.000000 -0.037232 0.999307
vn -0.000000 -0.037231 0.999307
vn 0.000000 -0.037232 0.999307
vn 0.000000 -0.037232 0.999307
vn 0.000000 -0.037232 0.999307
vn 0.000000 -0.037232 0.999307
vn 0.000000 -0.037232 0.999307
vn -0.000000 -0.037231 0.999307
vn -0.000000 -0.037231 0.999307
s off
g polySurface1468 polySurface1455
usemtl polySurface1465SG
f 3/1/1 1/2/2 2/3/3 4/4/4
f 6/5/5 7/6/6 9/7/7 8/8/8
f 3/1/9 4/4/10 6/5/11 8/8/12
f 29/9/13 22/10/14 23/11/15 21/12/16
f 15/13/17 13/14/18 14/15/19 16/16/20
f 19/17/21 17/18/22 18/19/23 20/20/24
f 30/21/25 1/22/26 3/23/27 8/24/28
f 22/25/29 18/19/30 17/18/31 25/26/32
f 23/27/33 22/25/34 25/26/35 26/28/36
f 21/29/37 23/27/38 26/28/39 24/30/40
f 15/13/41 16/16/42 21/29/43 24/30/44
f 27/31/45 19/17/46 20/20/47 28/32/48
f 2/33/49 1/34/50 27/31/51 28/32/52
f 12/35/53 11/36/54 9/37/55 7/38/56
f 10/39/57 11/40/58 12/41/59
f 29/9/60 21/12/61 16/42/62 14/43/63
f 29/9/64 2/44/65 28/45/66 20/46/67
f 29/9/68 20/46/69 18/47/70 22/10/71
f 5/48/72 7/49/73 6/50/74
f 29/9/75 6/50/76 4/51/77 2/44/78
f 5/48/79 6/50/80 29/9/81
f 5/52/82 10/53/83 12/54/84 7/55/85
f 10/39/86 30/21/87 11/40/88
f 30/21/89 8/24/90 9/56/91 11/40/92
f 25/57/93 17/58/94 19/59/95 30/21/96
f 30/21/97 19/59/98 27/60/99 1/22/100
f 24/61/101 30/21/102 13/62/103 15/63/104
f 25/57/105 30/21/106 24/61/107 26/64/108
g default
v 6.090930 7.072919 -3.565358
v 6.334862 7.072919 -3.565358
v 6.127248 8.059134 -3.625783
v 6.373147 8.059134 -3.625783
v 6.127248 8.059134 -4.055484
v 6.373147 8.059134 -4.055484
v 6.090930 7.072919 -3.987924
v 6.334862 7.072919 -3.987924
v 6.054894 6.252212 -3.720455
v 6.296874 6.252212 -3.720455
v 6.090930 7.072919 -4.178371
v 6.334862 7.072919 -4.178371
v 6.090930 7.072919 -3.374912
v 6.334862 7.072919 -3.374912
vt 0.258858 0.988194
vt 0.263919 0.933354
vt 0.486431 0.945209
vt 0.481329 1.000491
vt 0.490651 0.910240
vt 0.435221 0.907134
vt 0.440649 0.810272
vt 0.496079 0.813377
vt 0.488164 0.745804
vt 0.488688 0.801319
vt 0.265956 0.794774
vt 0.265436 0.739704
vt 0.212147 0.908297
vt 0.217484 0.813043
vt 0.181525 0.727600
vt 0.213890 0.773032
vt 0.037655 0.861379
vt 0.014950 0.809161
vt 0.207188 0.949894
vt 0.176917 0.996151
vt 0.012710 0.909920
vt 0.222961 0.795181
vt 0.222440 0.740111
vt 0.216043 0.984244
vt 0.221103 0.929403
vn 0.000000 0.061155 0.998128
vn 0.000000 0.061155 0.998128
vn 0.000000 0.061155 0.998128
vn 0.000000 0.061155 0.998128
vn 0.000000 1.000000 0.000000
vn 0.000000 1.000000 0.000000
vn 0.000000 1.000000 0.000000
vn 0.000000 1.000000 0.000000
vn 0.000000 -0.068344 -0.997662
vn 0.000000 -0.068345 -0.997662
vn 0.000000 -0.068345 -0.997662
vn 0.000000 -0.068345 -0.997662
vn 0.999247 -0.038791 0.000000
vn 0.999247 -0.038791 0.000000
vn 0.999247 -0.038791 0.000000
vn 0.999247 -0.038791 0.000000
vn 0.000000 -0.487242 -0.873267
vn 0.000000 -0.487242 -0.873267
vn 0.000000 -0.487242 -0.873267
vn 0.000000 -0.487242 -0.873267
vn 0.998931 -0.046237 0.000000
vn 0.998931 -0.046237 0.000000
vn 0.998931 -0.046237 0.000000
vn 0.000000 -0.388040 0.921642
vn 0.000000 -0.388040 0.921642
vn 0.000000 -0.388040 0.921642
vn 0.000000 -0.388040 0.921642
vn 0.000000 1.000000 0.000000
vn 0.000000 1.000000 0.000000
vn 0.000000 1.000000 0.000000
vn 0.000000 1.000000 0.000000
vn 0.998931 -0.046237 0.000000
vn 0.998931 -0.046237 0.000000
vn 0.998931 -0.046237 0.000000
vn 0.000000 1.000000 0.000000
vn 0.000000 1.000000 0.000000
vn 0.000000 1.000000 0.000000
vn 0.000000 1.000000 0.000000
vn 0.998931 -0.046237 0.000000
vn 0.998931 -0.046237 0.000000
vn 0.998931 -0.046237 0.000000
s off
g polySurface1455 polySurface1466
usemtl polySurface1465SG
f 31/65/109 32/66/110 34/67/111 33/68/112
f 33/69/113 34/70/114 36/71/115 35/72/116
f 35/73/117 36/74/118 38/75/119 37/76/120
f 32/77/121 38/78/122 36/71/123 34/70/124
f 41/79/125 42/80/126 40/81/127 39/82/128
f 38/78/129 32/77/130 40/81/131
f 44/83/132 43/84/133 39/85/134 40/81/135
f 37/76/136 38/75/137 42/86/138 41/87/139
f 38/78/140 40/81/141 42/80/142
f 32/66/143 31/65/144 43/88/145 44/89/146
f 40/81/147 32/77/148 44/83/149
g default
v 6.188510 8.211823 -3.618377
v 6.349469 8.211823 -3.618377
v 6.196333 8.421684 -3.631177
v 6.357566 8.421684 -3.631177
v 6.196333 8.421684 -4.096879
v 6.357566 8.421684 -4.096879
v 6.188510 8.211823 -4.082443
v 6.349469 8.211823 -4.082443
vt 0.534082 0.661539
vt 0.480079 0.664355
vt 0.473713 0.594044
vt 0.527811 0.591262
vt 0.472121 0.539878
vt 0.317319 0.598647
vt 0.315726 0.544473
vt 0.263656 0.606055
vt 0.324233 0.668924
vt 0.270658 0.676263
vt 0.325823 0.723006
vt 0.481668 0.718428
vn 0.000000 0.060877 0.998145
vn 0.000000 0.060877 0.998145
vn 0.000000 0.060877 0.998145
vn 0.000000 0.060877 0.998145
vn 0.000000 1.000000 0.000000
vn 0.000000 1.000000 0.000000
vn 0.000000 1.000000 0.000000
vn 0.000000 1.000000 0.000000
vn 0.000000 -0.068623 -0.997643
vn 0.000000 -0.068623 -0.997643
vn 0.000000 -0.068623 -0.997643
vn 0.000000 -0.068623 -0.997643
vn 0.000000 -1.000000 0.000000
vn 0.000000 -1.000000 0.000000
vn 0.000000 -1.000000 0.000000
vn 0.000000 -1.000000 0.000000
vn 0.999257 -0.038553 0.000000
vn 0.999257 -0.038553 0.000000
vn 0.999257 -0.038553 0.000000
vn 0.999257 -0.038553 0.000000
s off
g polySurface1455 polySurface1465
usemtl polySurface1465SG
f 45/90/150 46/91/151 48/92/152 47/93/153
f 47/94/154 48/92/155 50/95/156 49/96/157
f 49/97/158 50/95/159 52/98/160 51/99/161
f 51/100/162 52/98/163 46/91/164 45/101/165
f 46/91/166 52/98/167 50/95/168 48/92/169
g default
v 0.966431 13.282520 2.670880
v 2.536372 13.282520 2.670880
v 0.966489 13.545901 2.678618
v 2.537910 13.545901 2.678618
v 0.966611 14.101507 2.184816
v 2.541154 14.101507 2.184816
v 0.966611 14.101507 1.929754
v 2.541154 14.101507 1.929754
v 2.537910 13.545901 2.425108
v 2.539448 13.809281 2.177864
v 2.539448 13.809281 2.432110
v 0.966489 13.545901 2.425108
v 0.966547 13.809281 2.177864
v 0.966547 13.809281 2.432110
v 0.966680 14.416814 1.936374
v 2.542995 14.416814 1.936374
v 0.966680 14.416814 1.654945
v 2.542995 14.416814 1.654945
v 0.966431 13.282520 1.640065
v 2.536372 13.282520 1.640065
vt 0.684941 0.980366
vt 0.644370 0.980375
vt 0.644370 0.738543
vt 0.684941 0.738306
vt 0.888030 0.980347
vt 0.848740 0.980347
vt 0.848740 0.737806
vt 0.888030 0.737806
vt 0.291878 0.509840
vt 0.234506 0.347641
vt 0.341016 0.451966
vt 0.342393 0.509840
vt 0.803726 0.738069
vt 0.803726 0.980357
vt 0.764562 0.738069
vt 0.764562 0.980357
vt 0.723991 0.738306
vt 0.723991 0.980366
vt 0.936599 0.980336
vt 0.936599 0.737522
vt 0.981797 0.737522
vt 0.981797 0.980336
vt 0.227300 0.347641
vt 0.224354 0.572286
vt 0.168617 0.572286
vt 0.169928 0.509840
vt 0.237453 0.572286
vt 0.293189 0.572286
vt 0.389982 0.399804
vt 0.438657 0.347641
vt 0.440189 0.399804
vt 0.391369 0.451966
vt 0.120790 0.451966
vt 0.070437 0.451966
vt 0.071824 0.399804
vt 0.119413 0.509840
vt 0.021617 0.399804
vt 0.023149 0.347641
vn 0.000000 -0.029366 0.999569
vn 0.000000 -0.029366 0.999569
vn 0.000000 -0.029366 0.999569
vn 0.000000 -0.029366 0.999569
vn 0.000000 1.000000 0.000000
vn 0.000000 1.000000 0.000000
vn 0.000000 1.000000 0.000000
vn 0.000000 1.000000 0.000000
vn -1.000000 0.000219 0.000000
vn -1.000000 0.000219 -0.000000
vn -1.000000 0.000220 -0.000000
vn -1.000000 0.000219 0.000000
vn 0.000000 -0.023783 0.999717
vn 0.000000 -0.023783 0.999717
vn 0.000000 -0.023783 0.999717
vn 0.000000 -0.023783 0.999717
vn 0.000000 1.000000 0.000000
vn 0.000000 1.000000 0.000000
vn 0.000000 1.000000 0.000000
vn 0.000000 1.000000 0.000000
vn 0.000000 -0.026575 0.999647
vn 0.000000 -0.026575 0.999647
vn 0.000000 -0.026575 0.999647
vn 0.000000 -0.026575 0.999647
vn 0.000000 1.000000 0.000000
vn 0.000000 1.000000 0.000000
vn 0.000000 1.000000 0.000000
vn 0.000000 1.000000 0.000000
vn 0.000000 -0.020991 0.999780
vn 0.000000 -0.020991 0.999780
vn 0.000000 -0.020991 0.999780
vn 0.000000 -0.020991 0.999780
vn 0.000000 1.000000 0.000000
vn 0.000000 1.000000 0.000000
vn 0.000000 1.000000 0.000000
vn 0.000000 1.000000 0.000000
vn 0.999983 -0.005839 -0.000000
vn 0.999983 -0.005839 -0.000000
vn 0.999983 -0.005839 -0.000000
vn 0.999983 -0.005839 -0.000000
vn -1.000000 0.000219 0.000000
vn -1.000000 0.000219 -0.000000
vn -1.000000 0.000219 0.000000
vn -1.000000 0.000219 0.000000
vn -1.000000 0.000219 -0.000000
vn -1.000000 0.000219 -0.000000
vn -1.000000 0.000219 0.000000
vn -1.000000 0.000219 0.000000
vn -1.000000 0.000220 -0.000000
vn -1.000000 0.000219 -0.000000
vn -1.000000 0.000219 -0.000000
vn -1.000000 0.000220 -0.000000
vn 0.999983 -0.005839 -0.000000
vn 0.999983 -0.005839 -0.000000
vn 0.999983 -0.005840 0.000000
vn 0.999983 -0.005839 0.000000
vn 0.999983 -0.005839 -0.000000
vn 0.999983 -0.005839 -0.000000
vn 0.999983 -0.005839 -0.000001
vn 0.999983 -0.005839 -0.000000
vn 0.999983 -0.005839 -0.000000
vn 0.999983 -0.005839 0.000000
vn 0.999983 -0.005839 0.000000
vn 0.999983 -0.005839 0.000000
s off
g polySurface1455 polySurface1467
usemtl polySurface1465SG
f 55/102/170 53/103/171 54/104/172 56/105/173
f 59/106/174 57/107/175 58/108/176 60/109/177
f 59/110/178 71/111/179 65/112/180 57/113/181
f 62/114/182 58/108/183 57/107/184 65/115/185
f 63/116/186 62/114/187 65/115/188 66/117/189
f 61/118/190 63/116/191 66/117/192 64/119/193
f 55/102/194 56/105/195 61/118/196 64/119/197
f 67/120/198 59/106/199 60/109/200 68/121/201
f 70/122/202 69/123/203 67/120/204 68/121/205
f 72/124/206 70/125/207 68/126/208 60/127/209
f 69/128/210 71/111/211 59/110/212 67/129/213
f 64/130/214 71/111/215 53/131/216 55/132/217
f 65/112/218 71/111/219 64/130/220 66/133/221
f 72/124/222 62/134/223 63/135/224 61/136/225
f 72/124/226 60/127/227 58/137/228 62/134/229
f 72/124/230 61/136/231 56/138/232 54/139/233
