# This file uses centimeters as units for non-parametric coordinates.

mtllib workout floors.mtl
g default
v -0.454504 9.969901 -2.003128
v -0.454504 9.969901 3.666595
v 4.757293 9.969901 3.666595
v 6.274386 9.969901 3.666595
v 6.274386 9.969901 -2.003128
v 4.757293 9.969901 -2.003128
v -0.454504 9.969901 -2.639872
v 4.757293 9.969901 -2.639872
v 6.117315 5.786915 -4.746612
v 4.566834 5.786915 -4.762876
v -0.268049 5.786915 3.426840
v -0.268049 5.786915 -2.597324
v 4.566834 5.786915 -2.555215
v 6.117315 5.786915 -2.541711
v -4.373003 5.786915 -2.633798
v -4.373003 5.786915 3.402920
v -4.373003 5.786915 -4.601861
v -0.268049 5.786915 -4.558787
v 4.566834 5.786915 -4.509059
v 6.117315 5.786915 -4.493112
vt 0.078771 0.273999
vt 0.637357 0.273999
vt 0.637357 0.787470
vt 0.078771 0.787470
vt 0.637357 0.936935
vt 0.078771 0.936935
vt 0.016038 0.273999
vt 0.016038 0.787470
vt 0.127668 0.011832
vt 0.254569 0.010720
vt 0.254533 0.031494
vt 0.127632 0.032580
vt 0.649972 0.188643
vt 0.985946 0.186239
vt 0.985092 0.680312
vt 0.649120 0.681690
vt 0.650249 0.028108
vt 0.986224 0.025163
vt 0.254256 0.191406
vt 0.127356 0.192292
vn 0.000000 1.000000 0.000000
vn 0.000000 1.000000 0.000000
vn 0.000000 1.000000 0.000000
vn 0.000000 1.000000 0.000000
vn 0.000000 1.000000 0.000000
vn 0.000000 1.000000 0.000000
vn 0.000000 1.000000 0.000000
vn 0.000000 1.000000 0.000000
vn 0.000000 1.000000 0.000000
vn 0.000000 1.000000 0.000000
vn 0.000000 1.000000 0.000000
vn 0.000000 1.000000 0.000000
vn 0.000000 1.000000 0.000000
vn 0.000000 1.000000 0.000000
vn 0.000000 1.000000 0.000000
vn 0.000000 1.000000 0.000000
vn 0.000000 1.000000 -0.000000
vn 0.000000 1.000000 -0.000000
vn 0.000000 1.000000 -0.000000
vn 0.000000 1.000000 -0.000000
vn 0.000000 1.000000 0.000000
vn 0.000000 1.000000 0.000000
vn 0.000000 1.000000 0.000000
vn 0.000000 1.000000 0.000000
s off
g polySurface1415
usemtl polySurface1475SG
f 1/1/1 2/2/2 3/3/3 6/4/4
f 6/4/5 3/3/6 4/5/7 5/6/8
f 7/7/9 1/1/10 6/4/11 8/8/12
s 1
f 9/9/13 10/10/14 19/11/15 20/12/16
f 12/13/17 15/14/18 16/15/19 11/16/20
f 18/17/21 17/18/22 15/14/18 12/13/17
f 19/11/15 18/17/21 12/13/17 13/19/23
f 20/12/16 19/11/15 13/19/23 14/20/24
